<?xml version="1.0" encoding="utf-8"?>
<!-- Generator: Adobe Illustrator 17.0.0, SVG Export Plug-In . SVG Version: 6.00 Build 0)  -->
<!DOCTYPE svg PUBLIC "-//W3C//DTD SVG 1.1//EN" "http://www.w3.org/Graphics/SVG/1.1/DTD/svg11.dtd">
<svg version="1.1" id="Camada_1" xmlns="http://www.w3.org/2000/svg" xmlns:xlink="http://www.w3.org/1999/xlink" x="0px" y="0px"
	 width="19px" height="14.296px" viewBox="0 0 19 14.296" enable-background="new 0 0 19 14.296" xml:space="preserve">
<g>
	<g>
		<path fill="#39B50B" d="M19,2.99c-0.288,0.525-0.675,0.968-1.099,1.39c-2.979,2.968-5.949,5.945-8.925,8.917
			c-1.328,1.326-2.528,1.331-3.839,0.021c-1.365-1.364-2.723-2.735-4.096-4.091C0.633,8.824,0.262,8.401,0,7.888
			c0-0.445,0-0.891,0-1.336c0.964-1.923,2.558-2.185,4.091-0.668C4.845,6.63,5.607,7.37,6.337,8.14
			c0.471,0.496,0.853,0.531,1.358,0.02c2.374-2.403,4.778-4.778,7.162-7.173c0.765-0.768,1.603-1.244,2.715-0.839
			C18.292,0.41,18.74,0.947,19,1.654C19,2.099,19,2.545,19,2.99z"/>
	</g>
</g>
</svg>
