<?xml version="1.0" encoding="utf-8"?>
<!-- Generator: Adobe Illustrator 17.0.0, SVG Export Plug-In . SVG Version: 6.00 Build 0)  -->
<!DOCTYPE svg PUBLIC "-//W3C//DTD SVG 1.1//EN" "http://www.w3.org/Graphics/SVG/1.1/DTD/svg11.dtd">
<svg version="1.1" id="Camada_1" xmlns="http://www.w3.org/2000/svg" xmlns:xlink="http://www.w3.org/1999/xlink" x="0px" y="0px"
	 width="19.266px" height="26.8px" viewBox="0 0 19.266 26.8" enable-background="new 0 0 19.266 26.8" xml:space="preserve">
<g>
	<path fill="#A8A8A8" d="M10.695,0c0.796,0.223,1.614,0.386,2.384,0.677c5.392,2.035,7.826,8.425,4.999,13.553
		c-1.642,2.98-3.636,5.767-5.475,8.638c-0.841,1.313-1.691,2.621-2.537,3.932c-0.209,0-0.419,0-0.628,0
		c-2.718-4.171-5.601-8.245-8.114-12.536C-2.358,7.979,2.198,0.83,8.139,0.16C8.228,0.15,8.307,0.055,8.391,0
		C9.159,0,9.927,0,10.695,0z M9.578,25.234c0.938-1.402,1.709-2.514,2.44-3.652c1.767-2.752,3.728-5.406,5.226-8.299
		c2.82-5.444-1.16-11.889-7.276-12.068C3.648,1.029-0.898,7.485,1.966,12.987C4.14,17.164,6.929,21.021,9.578,25.234z"/>
	<path fill="#A8A8A8" d="M5.64,9.92c0.005-2.266,1.777-4.054,4.022-4.058c2.243-0.004,4.03,1.797,4.027,4.058
		c-0.003,2.225-1.854,4.104-4.033,4.095C7.445,14.005,5.635,12.159,5.64,9.92z M9.693,7.116C8.08,7.105,6.732,8.415,6.743,9.986
		c0.01,1.528,1.325,2.84,2.874,2.865c1.584,0.025,2.954-1.32,2.945-2.893C12.553,8.411,11.257,7.127,9.693,7.116z"/>
</g>
</svg>
